<svg viewBox="0 0 256 256" aria-hidden='true' class='icon' style="fill-rule:evenodd;clip-rule:evenodd;stroke-linejoin:round;stroke-miterlimit:2;" fill='currentColor'>
    <path d="M256,48C256,21.508 234.492,0 208,0L48,0C21.508,0 0,21.508 0,48L0,208C0,234.492 21.508,256 48,256L208,256C234.492,256 256,234.492 256,208L256,48ZM64,160C81.661,160 96,174.339 96,192C96,209.661 81.661,224 64,224C46.339,224 32,209.661 32,192C32,174.339 46.339,160 64,160ZM32,128C84.664,128 128,171.336 128,224L160,224C160,153.781 102.219,96 32,96L32,128ZM32,64C119.773,64 192,136.227 192,224L224,224C224,118.672 137.328,32 32,32L32,64Z"/>
</svg>
